<?xml version="1.0" encoding="UTF-8" standalone="no"?>
<svg version="1.1" xmlns="http://www.w3.org/2000/svg" x="0px" y="0px"
     viewBox="0 0 32 32" style="enable-background:new 0 0 16 16;" xml:space="preserve">
  <path fill="#3A7CAE" d="M16 2l14 10v18H2V12L16 2z" />
  <path opacity=".25" fill="#FFF" d="M16 2l14 10v18H2V12L16 2z" />
  <path fill="#FFF" d="M6 6h20v20H6z" />
  <path opacity=".5" d="M25 25H7V7h18m1-1H6v20h20V6z" />
  <path fill="#3A7CAE" d="M30 12v18H2V12l14 10 14-10z" />
  <path opacity=".25" d="M2 12v18l10.5-10.5zM19.5 19.5L30 30V12z"/>
  <path style="opacity:0.85;fill:#3e3e3e;stroke-width:1.99999988"  d="m 23.97861,20.586097 v -1.800001 h -0.2 l -1.8,-0.8 -0.6,-1.2 1,-2 -1.2,-1.2 h -0.2 l -1.8,1 -1.2,-0.6 -1.2,-2.2 h -1.8 v 0.2 l -0.8,1.8 -1.2,0.6 -2,-1 -1.2,1.2 v 0.2 l 1,1.8 -0.6,1.2 -2.2000005,1.2 v 1.800001 h 0.2 l 1.8000005,0.8 0.6,1.2 -1,2 1.2,1.4 0.2,-0.2 1.8,-1 1.2,0.6 0.8,2.2 h 1.8 v -0.2 l 0.8,-1.8 1.2,-0.6 2,1 1.2,-1.2 v -0.2 l -1,-1.8 0.6,-1.2 z m -8,3.2 c -2.2,0 -4,-1.8 -4,-4.000001 0,-2.2 1.8,-4 4,-4 2.2,0 4,1.8 4,4 0,2.200001 -1.8,4.000001 -4,4.000001 z" />
</svg>
